{
    "asset": {
        "generator": "https://3dviewer.net",
        "version": "2.0"
    },
    "scene": 0,
    "scenes": [
        {
            "nodes": [
                0
            ]
        }
    ],
    "nodes": [
        {
            "mesh": 0
        }
    ],
    "materials": [
        {
            "name": "dl_SpaceMountain",
            "pbrMetallicRoughness": {
                "baseColorFactor": [
                    1,
                    1,
                    1,
                    1
                ],
                "baseColorTexture": {
                    "index": 0
                }
            },
            "emissiveFactor": [
                0,
                0,
                0
            ],
            "doubleSided": true,
            "alphaMode": "OPAQUE"
        }
    ],
    "meshes": [
        {
            "name": "dl_SpaceMountain",
            "primitives": [
                {
                    "attributes": {
                        "POSITION": 1,
                        "NORMAL": 2,
                        "TEXCOORD_0": 3
                    },
                    "mode": 4,
                    "material": 0,
                    "indices": 0
                }
            ]
        }
    ],
    "buffers": [
        {
            "uri": "model.bin",
            "byteLength": 292572
        }
    ],
    "bufferViews": [
        {
            "buffer": 0,
            "byteOffset": 0,
            "byteLength": 32508,
            "target": 34963
        },
        {
            "buffer": 0,
            "byteOffset": 32508,
            "byteLength": 97524,
            "target": 34962
        },
        {
            "buffer": 0,
            "byteOffset": 130032,
            "byteLength": 97524,
            "target": 34962
        },
        {
            "buffer": 0,
            "byteOffset": 227556,
            "byteLength": 65016,
            "target": 34962
        }
    ],
    "accessors": [
        {
            "bufferView": 0,
            "byteOffset": 0,
            "componentType": 5125,
            "count": 8127,
            "type": "SCALAR"
        },
        {
            "bufferView": 1,
            "byteOffset": 0,
            "componentType": 5126,
            "count": 8127,
            "min": [
                -3264.499267578125,
                -6387.396484375,
                -14.60321044921875
            ],
            "max": [
                3264.499755859375,
                3264.4990234375,
                4594.22216796875
            ],
            "type": "VEC3"
        },
        {
            "bufferView": 2,
            "byteOffset": 0,
            "componentType": 5126,
            "count": 8127,
            "type": "VEC3"
        },
        {
            "bufferView": 3,
            "byteOffset": 0,
            "componentType": 5126,
            "count": 8127,
            "type": "VEC2"
        }
    ],
    "images": [
        {
            "uri": "dl_SpaceMountain.png"
        }
    ],
    "textures": [
        {
            "source": 0
        }
    ]
}